<svg width="24" height="24" viewBox="0 0 24 24" fill="none" xmlns="http://www.w3.org/2000/svg">
<path d="M17.2634 4.5C15.3398 4.5 13.2682 4.9 11.8378 6C10.4074 4.9 8.33576 4.5 6.41212 4.5C4.98172 4.5 3.46255 4.72 2.18999 5.29C1.46986 5.62 0.986481 6.33 0.986481 7.14V18.42C0.986481 19.72 2.18999 20.68 3.43295 20.36C4.3997 20.11 5.42564 20 6.41212 20C7.95103 20 9.58859 20.26 10.9105 20.92C11.5024 21.22 12.1732 21.22 12.7552 20.92C14.0771 20.25 15.7146 20 17.2535 20C18.24 20 19.266 20.11 20.2327 20.36C21.4757 20.69 22.6792 19.73 22.6792 18.42V7.14C22.6792 6.33 22.1958 5.62 21.4757 5.29C20.213 4.72 18.6938 4.5 17.2634 4.5ZM20.7161 17.23C20.7161 17.86 20.1439 18.32 19.5323 18.21C18.7924 18.07 18.023 18.01 17.2634 18.01C15.5864 18.01 13.1695 18.66 11.8378 19.51V8C13.1695 7.15 15.5864 6.5 17.2634 6.5C18.171 6.5 19.0687 6.59 19.9269 6.78C20.3807 6.88 20.7161 7.29 20.7161 7.76V17.23Z" fill="url(#paint0_linear_1_124)"/>
<path d="M13.791 11.01C13.4753 11.01 13.1893 10.81 13.0906 10.49C12.9624 10.1 13.1794 9.66998 13.5641 9.54998C15.0833 9.04998 17.0464 8.88998 18.8516 9.09998C19.2561 9.14998 19.552 9.51998 19.5027 9.92998C19.4534 10.34 19.0884 10.64 18.6839 10.59C17.0858 10.4 15.3398 10.55 14.0179 10.98C13.939 10.99 13.8601 11.01 13.791 11.01Z" fill="url(#paint1_linear_1_124)"/>
<path d="M13.791 13.67C13.4753 13.67 13.1893 13.47 13.0906 13.15C12.9624 12.76 13.1794 12.33 13.5641 12.21C15.0734 11.71 17.0464 11.55 18.8516 11.76C19.2561 11.81 19.552 12.18 19.5027 12.59C19.4534 13 19.0884 13.3 18.6839 13.25C17.0858 13.06 15.3398 13.21 14.0179 13.64C13.939 13.66 13.8601 13.67 13.791 13.67Z" fill="url(#paint2_linear_1_124)"/>
<path d="M13.791 16.33C13.4753 16.33 13.1893 16.13 13.0906 15.81C12.9624 15.42 13.1794 14.99 13.5641 14.87C15.0734 14.37 17.0464 14.21 18.8516 14.42C19.2561 14.47 19.552 14.84 19.5027 15.25C19.4534 15.66 19.0884 15.95 18.6839 15.91C17.0858 15.72 15.3398 15.87 14.0179 16.3C13.939 16.32 13.8601 16.33 13.791 16.33Z" fill="url(#paint3_linear_1_124)"/>
<defs>
<linearGradient id="paint0_linear_1_124" x1="11.8328" y1="4.5" x2="11.8328" y2="21.145" gradientUnits="userSpaceOnUse">
<stop stop-color="#A6CF55"/>
<stop offset="1" stop-color="#66B238"/>
</linearGradient>
<linearGradient id="paint1_linear_1_124" x1="16.2809" y1="9.00989" x2="16.2809" y2="11.01" gradientUnits="userSpaceOnUse">
<stop stop-color="#A6CF55"/>
<stop offset="1" stop-color="#66B238"/>
</linearGradient>
<linearGradient id="paint2_linear_1_124" x1="16.2809" y1="11.6699" x2="16.2809" y2="13.67" gradientUnits="userSpaceOnUse">
<stop stop-color="#A6CF55"/>
<stop offset="1" stop-color="#66B238"/>
</linearGradient>
<linearGradient id="paint3_linear_1_124" x1="16.2809" y1="14.3299" x2="16.2809" y2="16.33" gradientUnits="userSpaceOnUse">
<stop stop-color="#A6CF55"/>
<stop offset="1" stop-color="#66B238"/>
</linearGradient>
</defs>
</svg>
